<?xml version="1.0" encoding="UTF-8"?>
<svg xmlns="http://www.w3.org/2000/svg" width="1640" height="624" viewBox="0 0 1640 624">
  <defs>
    <linearGradient id="g" x1="0" y1="0" x2="1" y2="1">
      <stop offset="0" stop-color="#C45C26"/>
      <stop offset="1" stop-color="#FF8A3D"/>
    </linearGradient>
    <filter id="softShadow" x="-20%" y="-20%" width="140%" height="140%">
      <feDropShadow dx="0" dy="14" stdDeviation="18" flood-color="#000000" flood-opacity="0.55"/>
    </filter>
  </defs>

  <!-- Background -->
  <rect width="1640" height="624" fill="#0D0D0D"/>

  <!-- Subtle grid -->
  <g opacity="0.10" stroke="#FFFFFF" stroke-width="1">
    <path d="M0 104H1640M0 208H1640M0 312H1640M0 416H1640M0 520H1640"/>
    <path d="M164 0V624M328 0V624M492 0V624M656 0V624M820 0V624M984 0V624M1148 0V624M1312 0V624M1476 0V624"/>
  </g>

  <!-- Accent band -->
  <path d="M0 0H1640V124H0Z" fill="url(#g)" opacity="0.18"/>

  <!-- Left mark -->
  <g transform="translate(96,128)" filter="url(#softShadow)">
    <rect x="0" y="0" width="140" height="140" rx="34" fill="#101010" stroke="url(#g)" stroke-width="3"/>
    <path d="M52 116V26h44c10 0 18 3 24 8c6 6 9 13 9 23c0 7-2 13-5 18c-3 4-7 7-12 9c6 2 11 5 15 10c4 6 6 12 6 20v-1c0 12-4 21-12 27c-8 6-19 10-34 10H52Zm26-54h18c6 0 10-1 13-4c3-3 4-7 4-12c0-4-1-8-4-10c-3-3-7-4-13-4H78v30Zm0 48h20c6 0 11-1 14-4c3-3 5-7 5-13c0-5-2-9-5-12c-3-3-9-5-16-5H78v34Z"
          fill="#FFFFFF"/>
  </g>

  <!-- Main text -->
  <g transform="translate(280,180)">
    <text x="0" y="0" fill="#FFFFFF" font-family="Montserrat, Arial, sans-serif" font-size="52" font-weight="800" letter-spacing="0.5">
      RACZNIAK SYSTEMS
    </text>
    <text x="0" y="48" fill="#FFFFFF" font-family="Montserrat, Arial, sans-serif" font-size="20" font-weight="600" opacity="0.8">
      Automation tools built around how your business actually runs
    </text>
    <text x="0" y="92" fill="#FFFFFF" font-family="Montserrat, Arial, sans-serif" font-size="18" font-weight="500" opacity="0.65">
      Lead capture • Mobile dashboard • Text and email automation • Custom calculators
    </text>
  </g>

  <!-- CTA pill (right) -->
  <g transform="translate(1100,410)" filter="url(#softShadow)">
    <rect x="0" y="0" width="460" height="110" rx="28" fill="#101010" stroke="url(#g)" stroke-width="2"/>
    <text x="32" y="44" fill="#FFFFFF" font-family="Montserrat, Arial, sans-serif" font-size="18" font-weight="700" opacity="0.9">
      Want to systemize your workflow?
    </text>
    <text x="32" y="78" fill="#FFFFFF" font-family="Montserrat, Arial, sans-serif" font-size="18" font-weight="600" opacity="0.75">
      DM to discuss what’s possible
    </text>
    <circle cx="420" cy="55" r="16" fill="url(#g)"/>
  </g>
</svg>







