<?xml version="1.0" encoding="UTF-8"?>
<svg xmlns="http://www.w3.org/2000/svg" width="1640" height="624" viewBox="0 0 1640 624">
  <defs>
    <linearGradient id="g" x1="0" y1="0" x2="1" y2="1">
      <stop offset="0" stop-color="#C45C26"/>
      <stop offset="1" stop-color="#FF8A3D"/>
    </linearGradient>
    <filter id="softShadow" x="-20%" y="-20%" width="140%" height="140%">
      <feDropShadow dx="0" dy="14" stdDeviation="18" flood-color="#000000" flood-opacity="0.55"/>
    </filter>
  </defs>

  <!-- Background -->
  <rect width="1640" height="624" fill="#0D0D0D"/>

  <!-- Subtle grid -->
  <g opacity="0.10" stroke="#FFFFFF" stroke-width="1">
    <path d="M0 104H1640M0 208H1640M0 312H1640M0 416H1640M0 520H1640"/>
    <path d="M164 0V624M328 0V624M492 0V624M656 0V624M820 0V624M984 0V624M1148 0V624M1312 0V624M1476 0V624"/>
  </g>

  <!-- Accent band -->
  <path d="M0 0H1640V124H0Z" fill="url(#g)" opacity="0.18"/>

  <!-- Left mark -->
  <g transform="translate(96,128)" filter="url(#softShadow)">
    <rect x="0" y="0" width="140" height="140" rx="34" fill="#101010" stroke="url(#g)" stroke-width="3"/>
    <path d="M52 116V26h44c10 0 18 3 24 8c6 6 9 13 9 23c0 7-2 13-5 18c-3 4-7 7-12 9c6 2 11 5 15 10c4 6 6 12 6 20v-1c0 12-4 21-12 27c-8 6-19 10-34 10H52Zm26-54h18c6 0 10-1 13-4c3-3 4-7 4-12c0-4-1-8-4-10c-3-3-7-4-13-4H78v30Zm0 48h20c6 0 11-1 14-4c3-3 5-7 5-13c0-5-2-9-5-12c-3-3-9-5-16-5H78v34Z"
          fill="#FFFFFF"/>
  </g>

  <!-- Main text -->
  <g transform="translate(280,180)">
    <text x="0" y="0" fill="#FFFFFF" font-family="Montserrat, Arial, sans-serif" font-size="52" font-weight="800" letter-spacing="0.5">
      RACZNIAK SYSTEMS
    </text>
    <text x="0" y="48" fill="#FFFFFF" font-family="Montserrat, Arial, sans-serif" font-size="20" font-weight="600" opacity="0.8">
      Automation tools built around how your business actually runs
    </text>
    <text x="0" y="92" fill="#FFFFFF" font-family="Montserrat, Arial, sans-serif" font-size="18" font-weight="500" opacity="0.65">
      Google Business Profile • Ads • Landing Pages • Tracking • Follow-up Automations
    </text>
  </g>

  <!-- Accent line -->
  <rect x="280" y="314" width="620" height="6" rx="3" fill="url(#g)" opacity="0.9"/>

  <!-- CTA pill -->
  <g transform="translate(280,360)" filter="url(#softShadow)">
    <rect x="0" y="0" width="520" height="62" rx="31" fill="#101010" stroke="url(#g)" stroke-width="2"/>
    <text x="26" y="40" fill="#FFFFFF" font-family="Montserrat, Arial, sans-serif" font-size="18" font-weight="700">
      Want more booked jobs? Get a free growth audit →
    </text>
  </g>

  <!-- Decorative nodes -->
  <g opacity="0.8">
    <circle cx="1276" cy="170" r="10" fill="url(#g)"/>
    <circle cx="1508" cy="270" r="10" fill="url(#g)"/>
    <circle cx="1320" cy="468" r="10" fill="url(#g)"/>
    <circle cx="1140" cy="396" r="10" fill="url(#g)"/>
    <path d="M1276 170C1360 190 1434 230 1508 270" fill="none" stroke="#FFFFFF" stroke-width="3" opacity="0.16"/>
    <path d="M1140 396C1208 420 1266 446 1320 468" fill="none" stroke="#FFFFFF" stroke-width="3" opacity="0.16"/>
  </g>
</svg>


